#!OML:ASF H:\ManfredObstacles\Project 1\Capture day 2\Session 1\male.ASF
:FULLY-SPECIFIED
:DEGREES
997
root 3.15828 15.9696 -22.4616 -172.464 -5.59476 177.543
lowerback -7.27512 -1.64007 -2.07943
upperback 1.28968 -2.05869 1.09054
thorax 5.54218 -1.10317 2.05668
lowerneck -37.4651 -0.628718 0.782388
upperneck 36.1228 -2.46002 -0.322376
head 20.6162 -1.19394 -1.10757
rclavicle 9.93923e-015 -7.15625e-015
rhumerus -33.6618 -22.2246 -76.3693
rradius 23.8634
rwrist 38.4719
rhand -2.1269 -6.15526
rfingers 7.12502
rthumb 23.5517 -34.7332
lclavicle 9.93923e-015 -7.15625e-015
lhumerus -24.1123 13.9552 86.3562
lradius 18.5559
lwrist -57.5295
lhand 2.83585 5.00787
lfingers 7.12502
lthumb 28.3037 32.8892
rfemur -13.2498 -1.26804 26.3347
rtibia 24.4445
rfoot -12.6886 -3.06761
rtoes -5.38052
lfemur -10.4921 -3.07258 -16.3106
ltibia 58.8471
lfoot 40.6124 -11.2439
ltoes 7.1477
998
root 3.15777 15.9691 -22.4586 -172.537 -5.5585 177.56
lowerback -7.22845 -1.63785 -2.05755
upperback 1.30682 -2.05901 1.09759
thorax 5.53311 -1.10289 2.05265
lowerneck -37.4187 -0.654572 0.7324
upperneck 36.145 -2.50054 -0.271257
head 20.6206 -1.2107 -1.08509
rclavicle -1.64494e-014 9.93923e-015
rhumerus -33.6476 -22.1182 -76.4403
rradius 23.9553
rwrist 38.3434
rhand -2.1151 -6.16383
rfingers 7.12502
rthumb 23.563 -34.7403
lclavicle -1.64494e-014 9.93923e-015
lhumerus -24.2111 14.76 85.908
lradius 18.3021
lwrist -58.2757
lhand 2.82301 4.97276
lfingers 7.12502
lthumb 28.2914 32.8562
rfemur -13.153 -1.1909 26.3504
rtibia 24.3858
rfoot -12.6942 -3.13254
rtoes -5.51496
lfemur -10.6511 -3.12061 -16.29
ltibia 59.1694
lfoot 40.5352 -11.1756
ltoes 7.1128
999
root 3.15719 15.9687 -22.4557 -172.613 -5.52182 177.557
lowerback -7.17426 -1.63521 -2.05746
upperback 1.31858 -2.05655 1.09966
thorax 5.51461 -1.10168 2.05626
lowerneck -37.3733 -0.68458 0.671759
upperneck 36.1789 -2.54526 -0.215388
head 20.633 -1.23028 -1.06004
rclavicle -1.08835e-014 -1.98785e-015
rhumerus -33.6575 -22.0022 -76.5071
rradius 24.066
rwrist 38.2126
rhand -2.09305 -6.18118
rfingers 7.12502
rthumb 23.5841 -34.755
lclavicle -1.08835e-014 -1.98785e-015
lhumerus -24.322 15.5472 85.4611
lradius 18.0527
lwrist -58.9962
lhand 2.84589 4.9372
lfingers 7.12502
lthumb 28.3133 32.817
rfemur -13.056 -1.10757 26.3427
rtibia 24.3394
rfoot -12.6938 -3.19552
rtoes -5.58631
lfemur -10.8023 -3.17564 -16.2956
ltibia 59.481
lfoot 40.473 -11.0861
ltoes 7.05818
1000
root 3.15638 15.9683 -22.4527 -172.69 -5.48519 177.543
lowerback -7.11429 -1.63036 -2.06806
upperback 1.32544 -2.04992 1.09667
thorax 5.48766 -1.09851 2.06134
lowerneck -37.3241 -0.720893 0.600167
upperneck 36.2317 -2.6015 -0.150538
head 20.657 -1.25523 -1.03251
rclavicle 8.69683e-015 -4.77083e-015
rhumerus -33.6847 -21.8857 -76.5711
rradius 24.1795
rwrist 38.0703
rhand -2.07535 -6.20334
rfingers 7.12502
rthumb 23.6011 -34.775
lclavicle 8.69683e-015 -4.77083e-015
lhumerus -24.4469 16.3126 85.0131
lradius 17.8119
lwrist -59.6909
lhand 2.89406 4.90051
lfingers 7.12502
lthumb 28.3593 32.7726
rfemur -12.9621 -1.02053 26.3203
rtibia 24.3073
rfoot -12.6922 -3.25184
rtoes -5.5788
lfemur -10.9445 -3.235 -16.3195
ltibia 59.7844
lfoot 40.4026 -11.0193
ltoes 6.96266
1001
root 3.15522 15.9679 -22.4494 -172.769 -5.44796 177.521
lowerback -7.05367 -1.62258 -2.0822
upperback 1.33075 -2.03884 1.08957
thorax 5.45845 -1.09312 2.06468
lowerneck -37.2727 -0.75953 0.534124
upperneck 36.2962 -2.66601 -0.0903007
head 20.6878 -1.28378 -1.01101
rclavicle -3.31473e-014 5.96354e-015
rhumerus -33.7265 -21.7976 -76.6234
rradius 24.2961
rwrist 37.9504
rhand -2.05859 -6.22145
rfingers 7.12502
rthumb 23.6172 -34.791
lclavicle -3.31473e-014 5.96354e-015
lhumerus -24.5756 17.057 84.5643
lradius 17.5744
lwrist -60.3751
lhand 2.9394 4.8606
lfingers 7.12502
lthumb 28.4026 32.7255
rfemur -12.8725 -0.935408 26.2885
rtibia 24.2863
rfoot -12.6841 -3.2938
rtoes -5.47034
lfemur -11.0821 -3.29664 -16.3551
ltibia 60.0838
lfoot 40.3108 -10.95
ltoes 6.79865
1002
root 3.15357 15.9676 -22.446 -172.846 -5.41379 177.498
lowerback -6.99336 -1.61386 -2.09197
upperback 1.33527 -2.02673 1.07935
thorax 5.42823 -1.087 2.06243
lowerneck -37.2196 -0.800131 0.462049
upperneck 36.3688 -2.735 -0.0237581
head 20.7239 -1.31431 -0.986822
rclavicle 5.41688e-015 2.78299e-015
rhumerus -33.7691 -21.7429 -76.6649
rradius 24.3982
rwrist 37.8579
rhand -2.05236 -6.22562
rfingers 7.12502
rthumb 23.6232 -34.7944
lclavicle 5.41688e-015 2.78299e-015
lhumerus -24.6987 17.7723 84.1224
lradius 17.3376
lwrist -61.0223
lhand 2.98294 4.82765
lfingers 7.12502
lthumb 28.4443 32.6856
rfemur -12.7898 -0.860676 26.2526
rtibia 24.2733
rfoot -12.6887 -3.32576
rtoes -5.32129
lfemur -11.2214 -3.36232 -16.3971
ltibia 60.3834
lfoot 40.1986 -10.89
ltoes 6.56985
